:SAMPLES-PER-SECOND 30
:FULLY-SPECIFIED
:DEGREES
419
root  -2.17096 40.8866 1.63815 175.976 -81.1062 -178.255
RightUpLeg  3.25771 -1.15772 -2.36381
RightLeg  0.466422 -11.1047 -0.915232
RightFoot  -0.110842 -0.470284 4.73993
RightToes  -3.13006e-008 1.75238e-005 3.56266e-009
Spine  -4.5314 -3.7654 -6.3134
Spine1  14.2483 -6.5085 9.15454
HEad  -7.16334 13.783 2.80281
LeftShoulder1  2.32597 -5.4225 -19.5885
LeftArm  -39.5864 -41.7272 -31.4298
LeftForeArm  85.2123 -73.3941 -26.822
LeftHand  -0.471406 -0.636475 9.03778
RightShoulder  3.89218 7.65166 28.9459
RightArm  -1.01954 -26.2308 40.067
RightForeArm  85.2732 79.991 80.1946
RightHand  -0.626459 7.15831 -6.13748
LeftUpLeg  4.77822 1.59474 1.10514
LeftLeg  0.220574 20.7797 -0.78408
LeftFoot  -1.97274 0.14598 -1.59922
LeftToes  4.76866e-008 1.46233e-008 1.30548e-009
420
root  -2.17382 40.8931 1.60656 176.556 -80.7542 -178.558
RightUpLeg  3.00756 -1.12716 -2.35205
RightLeg  0.269322 -10.8462 -0.844284
RightFoot  -0.0191768 -0.461668 4.59204
RightToes  -3.13006e-008 1.75238e-005 3.56266e-009
Spine  -4.77242 -3.90822 -6.68054
Spine1  14.4343 -6.7807 9.62469
HEad  -7.42179 14.7464 1.92285
LeftShoulder1  2.29463 -5.23676 -19.7904
LeftArm  -40.9884 -40.3777 -34.8799
LeftForeArm  85.7238 -74.4997 -29.3361
LeftHand  -0.697904 0.468068 16.6509
RightShoulder  3.90547 7.70976 28.8816
RightArm  0.285152 -26.1232 39.3244
RightForeArm  82.222 79.8726 78.3831
RightHand  -0.674557 6.8591 -6.72346
LeftUpLeg  4.63876 1.57335 1.11268
LeftLeg  -0.0248662 21.1169 -0.894493
LeftFoot  -1.867 0.152879 -1.69831
LeftToes  4.76866e-008 1.46233e-008 1.30548e-009
421
root  -2.1927 40.9013 1.58404 176.118 -80.4253 -178.012
RightUpLeg  3.08354 -1.20131 -2.31896
RightLeg  -0.136725 -10.4699 -0.580023
RightFoot  0.140482 -0.460266 4.56749
RightToes  -3.13006e-008 1.75238e-005 3.56266e-009
Spine  -4.917 -3.8762 -6.45376
Spine1  14.4927 -6.80003 9.73567
HEad  -8.04992 15.1634 0.440407
LeftShoulder1  2.33946 -5.19747 -20.4658
LeftArm  -40.4544 -39.0325 -37.1395
LeftForeArm  79.5842 -75.027 -31.8434
LeftHand  -0.591378 2.12334 20.836
RightShoulder  3.89177 7.73269 28.6832
RightArm  1.12599 -25.547 38.8711
RightForeArm  77.9173 79.6856 74.6305
RightHand  -0.689697 7.0041 -6.80412
LeftUpLeg  4.73989 1.56981 1.195
LeftLeg  -0.321153 21.457 -0.923831
LeftFoot  -1.81695 0.151072 -1.66057
LeftToes  4.76866e-008 1.46233e-008 1.30548e-009
422
root  -2.21557 40.905 1.56808 175.698 -80.4262 -177.605
RightUpLeg  3.31797 -1.26378 -2.29402
RightLeg  -0.482362 -10.4125 -0.39887
RightFoot  0.230362 -0.453464 4.47463
RightToes  -3.13006e-008 1.75238e-005 3.56266e-009
Spine  -5.17235 -3.89267 -5.73726
Spine1  14.7477 -6.65593 8.98425
HEad  -8.93433 15.1881 -1.09287
LeftShoulder1  2.46913 -5.42902 -21.2759
LeftArm  -38.618 -37.7499 -39.0454
LeftForeArm  64.8682 -74.9021 -34.7055
LeftHand  -0.499196 2.79703 22.1425
RightShoulder  3.91978 7.7465 28.895
RightArm  1.02764 -24.8994 39.0047
RightForeArm  74.1557 79.4675 70.0318
RightHand  -0.652863 7.65824 -6.15571
LeftUpLeg  4.82627 1.50054 1.20171
LeftLeg  -0.397511 21.5809 -0.802787
LeftFoot  -1.79321 0.160983 -1.80347
LeftToes  4.76866e-008 1.46233e-008 1.30548e-009
423
root  -2.23723 40.9058 1.54375 175.463 -80.4883 -177.438
RightUpLeg  3.51843 -1.27282 -2.2504
RightLeg  -0.624239 -10.4471 -0.351631
RightFoot  0.24054 -0.449433 4.44457
RightToes  -3.13006e-008 1.75238e-005 3.56266e-009
Spine  -5.29241 -3.61863 -5.21993
Spine1  14.7483 -6.25519 8.53277
HEad  -9.76959 14.9749 -2.42093
LeftShoulder1  2.62771 -5.81013 -21.8794
LeftArm  -36.0319 -36.7759 -42.6016
LeftForeArm  43.198 -74.5795 -39.406
LeftHand  -0.388053 3.12643 19.3782
RightShoulder  3.93479 7.70736 29.1566
RightArm  1.29256 -24.1153 38.5824
RightForeArm  72.0757 79.3479 69.0029
RightHand  -0.646275 7.00779 -6.38832
LeftUpLeg  4.94924 1.57885 1.29315
LeftLeg  -0.414874 21.4855 -0.840051
LeftFoot  -1.84091 0.172025 -1.96245
LeftToes  4.76866e-008 1.46233e-008 1.30548e-009
424
root  -2.23535 40.9068 1.50353 177.104 -80.4018 -178.926
RightUpLeg  3.06259 -1.31892 -2.40147
RightLeg  -0.0971596 -10.2924 -0.547975
RightFoot  0.0407319 -0.443994 4.45481
RightToes  -3.13006e-008 1.75238e-005 3.56266e-009
Spine  -5.52287 -3.03421 -5.30567
Spine1  14.3837 -5.59268 8.67227
HEad  -10.5077 14.4027 -3.9439
LeftShoulder1  2.82248 -6.2957 -22.5166
LeftArm  -31.7226 -36.1055 -46.7625
LeftForeArm  20.3109 -74.0036 -43.4645
LeftHand  -0.0557155 5.0717 17.8223
RightShoulder  3.86083 7.56079 28.9499
RightArm  1.26036 -22.9459 38.7538
RightForeArm  66.4556 78.9179 64.9
RightHand  -0.645732 6.7689 -6.4972
LeftUpLeg  5.00992 1.44861 1.09074
LeftLeg  -0.942827 21.7909 -1.10706
LeftFoot  -1.62037 0.16585 -1.85216
LeftToes  4.76866e-008 1.46233e-008 1.30548e-009
425
root  -2.26275 40.9077 1.46952 176.667 -81.1511 -178.7
RightUpLeg  3.48132 -1.46694 -2.40471
RightLeg  -0.138751 -10.8509 -0.426847
RightFoot  -0.0658251 -0.433476 4.38344
RightToes  -3.13006e-008 1.75238e-005 3.56266e-009
Spine  -5.50268 -2.85742 -4.55495
Spine1  14.1411 -5.07446 7.47226
HEad  -10.7621 14.1299 -4.97432
LeftShoulder1  2.91596 -6.56867 -22.6633
LeftArm  -25.4186 -37.1419 -51.7731
LeftForeArm  9.50863 -72.0472 -38.6604
LeftHand  -0.0854324 4.89093 17.7773
RightShoulder  3.93101 7.72057 29.0805
RightArm  0.521097 -21.2264 39.4787
RightForeArm  57.3771 78.0121 56.9749
RightHand  -0.666467 6.99703 -6.58212
LeftUpLeg  5.21355 1.56522 1.2336
LeftLeg  -0.924215 20.9346 -1.13964
LeftFoot  -1.6476 0.168773 -1.86467
LeftToes  4.76866e-008 1.46233e-008 1.30548e-009
426
root  -2.24375 40.9111 1.40915 178.417 -82.21 179.586
RightUpLeg  3.37269 -1.67949 -2.61035
RightLeg  0.246409 -11.6667 -0.487338
RightFoot  -0.320531 -0.423933 4.36855
RightToes  -3.13006e-008 1.75238e-005 3.56266e-009
Spine  -5.73516 -2.67133 -4.6988
Spine1  14.1357 -4.67414 6.98734
HEad  -11.1654 13.7398 -5.88118
LeftShoulder1  3.25769 -7.51131 -23.3298
LeftArm  -17.9664 -40.157 -55.8655
LeftForeArm  2.28406 -68.6855 -31.1924
LeftHand  -0.0922244 4.8086 16.0904
RightShoulder  4.00348 7.94452 29.0256
RightArm  0.205517 -22.0461 39.4426
RightForeArm  62.4262 78.643 62.761
RightHand  -0.715777 6.86375 -7.11319
LeftUpLeg  5.10056 1.44191 1.09757
LeftLeg  -1.10592 20.0292 -1.25561
LeftFoot  -1.42037 0.168461 -1.82536
LeftToes  4.76866e-008 1.46233e-008 1.30548e-009
427
root  -2.21748 40.9125 1.35882 178.666 -83.9555 179.191
RightUpLeg  3.792 -1.85886 -2.62695
RightLeg  0.183886 -13.1798 -0.384221
RightFoot  -0.405002 -0.420895 4.36556
RightToes  -3.13006e-008 1.75238e-005 3.56266e-009
Spine  -5.86955 -3.1515 -5.11641
Spine1  14.5005 -5.07557 6.74313
HEad  -11.7191 13.1622 -7.00455
LeftShoulder1  3.66703 -8.70116 -23.825
LeftArm  -10.7215 -43.8793 -59.777
LeftForeArm  -8.7313 -65.856 -27.6498
LeftHand  -0.0402726 5.17059 14.24
RightShoulder  4.0164 8.08711 28.6982
RightArm  0.235763 -19.889 40.182
RightForeArm  57.1579 78.0813 57.9969
RightHand  -0.625957 7.12432 -6.14552
LeftUpLeg  4.9382 1.42094 1.18596
LeftLeg  -0.894681 18.3056 -1.16069
LeftFoot  -1.33497 0.162763 -1.70133
LeftToes  4.76866e-008 1.46233e-008 1.30548e-009
428
root  -2.21199 40.9123 1.28989 178.174 -85.7108 179.482
RightUpLeg  4.36118 -1.96986 -2.51381
RightLeg  0.00654047 -14.8011 -0.242114
RightFoot  -0.498957 -0.418679 4.37237
RightToes  -3.13006e-008 1.75238e-005 3.56266e-009
Spine  -6.1896 -3.99075 -6.14586
Spine1  15.4771 -6.07011 7.17747
HEad  -12.3523 13.8584 -9.23341
LeftShoulder1  4.04418 -9.76951 -24.2715
LeftArm  -4.58628 -47.9543 -64.553
LeftForeArm  -17.4364 -63.0577 -24.7592
LeftHand  -0.0723885 4.79498 11.2013
RightShoulder  4.03233 8.2652 28.2953
RightArm  0.973059 -17.7457 40.5151
RightForeArm  56.317 78 57.5466
RightHand  -0.645598 6.95053 -6.40613
LeftUpLeg  4.82348 1.43111 1.36226
LeftLeg  -0.585726 16.5257 -0.968373
LeftFoot  -1.33651 0.176419 -1.88006
LeftToes  4.76866e-008 1.46233e-008 1.30548e-009
429
root  -2.17719 40.9179 1.21956 179.488 -87.2064 178.124
RightUpLeg  4.59017 -2.13464 -2.51725
RightLeg  -0.0308797 -16.1144 -0.0946257
RightFoot  -0.560223 -0.411298 4.29614
RightToes  -3.13006e-008 1.75238e-005 3.56266e-009
Spine  -5.43464 -4.88746 -7.05431
Spine1  14.8348 -6.97274 7.29904
HEad  -13.279 15.0717 -10.8977
LeftShoulder1  4.24728 -10.2825 -24.6247
LeftArm  1.04413 -51.4898 -70.3099
LeftForeArm  -20.6552 -60.3541 -22.0642
LeftHand  -0.113802 3.71056 7.01035
RightShoulder  4.06559 8.34445 28.3464
RightArm  1.77452 -15.7372 40.9883
RightForeArm  55.6554 77.8947 56.6637
RightHand  -0.730367 6.91476 -7.22141
LeftUpLeg  4.65034 1.3562 1.41879
LeftLeg  -0.591981 15.0975 -0.890586
LeftFoot  -1.1181 0.188175 -2.03393
LeftToes  4.76866e-008 1.46233e-008 1.30548e-009
430
root  -2.14272 40.9185 1.16162 -177.631 -87.8806 175.388
RightUpLeg  4.39996 -2.08661 -2.46746
RightLeg  0.112053 -16.8455 -0.181009
RightFoot  -0.668459 -0.415935 4.39551
RightToes  -3.13006e-008 1.75238e-005 3.56266e-009
Spine  -4.72963 -5.75154 -7.33866
Spine1  13.984 -7.66452 6.74395
HEad  -13.9234 16.4218 -12.1821
LeftShoulder1  4.48987 -10.9099 -24.9771
LeftArm  4.6689 -53.4823 -74.723
LeftForeArm  -19.8539 -59.5831 -21.3052
LeftHand  -0.129695 2.45021 4.64794
RightShoulder  4.19639 8.58285 28.7651
RightArm  2.10737 -13.8678 41.5916
RightForeArm  55.12 77.8204 56.119
RightHand  -0.596064 7.07806 -5.89186
LeftUpLeg  4.34017 1.29325 1.41574
LeftLeg  -0.561539 14.4576 -0.881266
LeftFoot  -0.983034 0.186384 -1.98194
LeftToes  4.76866e-008 1.46233e-008 1.30548e-009
431
root  -2.12495 40.9195 1.12169 -178.741 -88.0519 176.718
RightUpLeg  4.17784 -2.00102 -2.32009
RightLeg  0.0641392 -17.1474 -0.12303
RightFoot  -0.646079 -0.403206 4.21657
RightToes  -3.13006e-008 1.75238e-005 3.56266e-009
Spine  -4.61564 -6.40662 -8.13352
Spine1  14.0503 -8.48737 7.3069
HEad  -14.9358 17.5216 -13.5928
LeftShoulder1  4.73768 -11.5051 -25.4144
LeftArm  6.54016 -55.0809 -78.5647
LeftForeArm  -18.531 -59.5106 -21.1471
LeftHand  -0.107718 1.56065 3.11297
RightShoulder  4.24631 8.66842 28.9302
RightArm  2.03735 -12.2804 41.9785
RightForeArm  56.6462 78.0197 57.5731
RightHand  -0.606531 6.83629 -6.09148
LeftUpLeg  3.95373 1.35709 1.57352
LeftLeg  -0.335973 14.1479 -0.852599
LeftFoot  -1.0381 0.185476 -1.94652
LeftToes  4.76866e-008 1.46233e-008 1.30548e-009
432
root  -2.11883 40.9205 1.09108 179.722 -87.6087 178.473
RightUpLeg  3.95749 -1.95878 -2.24776
RightLeg  -0.119239 -16.8055 0.0247837
RightFoot  -0.566736 -0.392583 4.06845
RightToes  -3.13006e-008 1.75238e-005 3.56266e-009
Spine  -3.94202 -6.95612 -8.1985
Spine1  13.018 -8.98804 7.17054
HEad  -15.8415 19.3693 -14.5491
LeftShoulder1  4.65222 -11.2051 -25.4779
LeftArm  7.79491 -55.8644 -81.5136
LeftForeArm  -16.7093 -59.1409 -20.6858
LeftHand  -0.115808 0.062121 2.50739
RightShoulder  4.44066 9.05677 29.4141
RightArm  1.58028 -11.2766 42.0988
RightForeArm  57.8177 78.1305 58.2193
RightHand  -0.508753 6.91007 -5.1461
LeftUpLeg  3.67897 1.3788 1.69012
LeftLeg  -0.153475 14.4316 -0.794209
LeftFoot  -1.04032 0.1985 -2.1302
LeftToes  4.76866e-008 1.46233e-008 1.30548e-009
433
root  -2.11208 40.9207 1.06408 178.11 -86.4882 -179.744
RightUpLeg  3.69994 -1.80479 -2.11509
RightLeg  -0.29601 -15.9226 0.0849297
RightFoot  -0.430883 -0.374668 3.80392
RightToes  -3.13006e-008 1.75238e-005 3.56266e-009
Spine  -4.18851 -6.97165 -7.68096
Spine1  13.2602 -8.81416 6.38824
HEad  -16.4926 20.0317 -14.8726
LeftShoulder1  4.48274 -10.9167 -24.9131
LeftArm  9.2464 -57.13 -83.1374
LeftForeArm  -13.8777 -58.0686 -19.5681
LeftHand  -0.154255 -0.19571 3.26946
RightShoulder  4.46774 9.00011 29.795
RightArm  0.289514 -9.33087 42.2786
RightForeArm  56.6911 77.9791 56.9983
RightHand  -0.398444 7.10893 -4.04403
LeftUpLeg  3.62663 1.54876 1.8645
LeftLeg  -0.16341 15.332 -0.89438
LeftFoot  -1.08919 0.202393 -2.17406
LeftToes  4.76866e-008 1.46233e-008 1.30548e-009
